<svg width="512" height="512" viewBox="0 0 512 512" fill="none" xmlns="http://www.w3.org/2000/svg">
<g clip-path="url(#clip0)">
<path d="M76.891 473.949C76.891 473.949 111.207 432.102 70.435 357.89L10 502L76.891 473.949Z" fill="#8DE971"/>
<path d="M70.435 357.891C111.207 432.103 76.891 473.95 76.891 473.95L128.347 452.372C128.347 452.372 193.027 404.196 110.189 263.092L85.073 322.985L70.435 357.891Z" fill="#FFE366"/>
<path d="M110.188 263.091C193.025 404.195 128.346 452.371 128.346 452.371L182.701 429.577C193.951 417.305 254.587 306.116 185.924 202.207C167.722 177.859 157.315 158.219 158.235 148.521L128.772 218.778L110.188 263.091Z" fill="#8DE971"/>
<path d="M185.92 202.204C254.586 306.116 193.95 417.304 182.7 429.577L189.015 426.929L258.82 397.656C258.82 397.656 291.291 373.045 291.408 311.582C276.365 299.144 260.196 284.437 243.881 268.12C220.673 244.913 200.723 222.004 185.92 202.204Z" fill="#FFE366"/>
<path d="M291.409 311.581C291.292 373.045 258.821 397.655 258.821 397.655L363.479 353.766C351.442 354.909 324.08 338.595 291.409 311.581Z" fill="#8DE971"/>
<path d="M243.881 268.119C260.197 284.435 276.365 299.142 291.408 311.581C324.079 338.595 351.442 354.909 363.478 353.768L368.031 351.859C375.802 344.089 359.984 314.779 330.281 278.315C317.325 262.41 301.727 245.143 284.292 227.709C265.231 208.648 246.37 191.781 229.27 178.163C194.871 150.768 167.595 136.516 160.142 143.97L158.233 148.523C157.313 158.22 167.72 177.861 185.922 202.209C200.723 222.004 220.673 244.913 243.881 268.119Z" fill="#FFE366"/>
<path d="M198.499 85.62C209.545 85.62 218.499 76.6657 218.499 65.62C218.499 54.5743 209.545 45.62 198.499 45.62C187.453 45.62 178.499 54.5743 178.499 65.62C178.499 76.6657 187.453 85.62 198.499 85.62Z" fill="#FFE366"/>
<path d="M389.967 50C401.013 50 409.967 41.0457 409.967 30C409.967 18.9543 401.013 10 389.967 10C378.921 10 369.967 18.9543 369.967 30C369.967 41.0457 378.921 50 389.967 50Z" fill="#FFE366"/>
<path d="M452.497 223.619C463.543 223.619 472.497 214.665 472.497 203.619C472.497 192.573 463.543 183.619 452.497 183.619C441.451 183.619 432.497 192.573 432.497 203.619C432.497 214.665 441.451 223.619 452.497 223.619Z" fill="#8DE971"/>
<path d="M360.165 301.533C355.94 295.269 351.139 288.675 345.863 281.853C365.015 272.981 384.084 266.509 402.816 262.545C408.219 261.402 411.672 256.095 410.529 250.692C409.386 245.289 404.085 241.835 398.675 242.979C376.992 247.567 354.971 255.24 332.947 265.844C320.644 251.171 306.56 235.829 291.365 220.634C275.218 204.488 258.903 189.586 243.404 176.756C256.816 159.797 267.763 140.809 276.045 120.028C288.958 87.627 295.506 50.609 295.506 9.99899C295.506 4.47599 291.028 -0.00100708 285.506 -0.00100708C279.984 -0.00100708 275.506 4.47599 275.506 9.99899C275.506 72.571 259.462 124.357 227.778 164.319C221.799 159.758 216.002 155.566 210.466 151.833C180.829 131.844 163.177 127.159 153.311 136.671C153.241 136.736 153.168 136.8 153.1 136.867C153.09 136.877 153.08 136.886 153.07 136.895C153.064 136.901 153.059 136.908 153.053 136.913C150.526 139.446 148.966 142.509 148.375 146.164L0.777989 498.133C-0.792011 501.877 0.0579894 506.2 2.92899 509.071C4.84299 510.984 7.40099 512 10.003 512C11.305 512 12.619 511.746 13.868 511.222L186.61 438.783C186.638 438.771 186.666 438.76 186.694 438.748L262.652 406.894C262.69 406.878 262.728 406.863 262.765 406.847L365.838 363.622C369.175 363.082 372.01 361.718 374.407 359.561C374.581 359.416 374.744 359.262 374.907 359.108C374.971 359.045 375.04 358.993 375.103 358.929C375.113 358.919 375.121 358.908 375.13 358.899C375.199 358.831 375.263 358.757 375.329 358.686C384.839 348.819 380.154 331.168 360.165 301.533ZM206.101 408.92C212.956 393.884 219.949 374.145 224.105 352.108C228.747 327.494 230.788 295.126 222.199 260.173C226.936 265.177 231.809 270.192 236.808 275.191C251.766 290.148 266.864 304.027 281.328 316.191C279.894 363.404 258.239 384.917 253.575 389.012L206.101 408.92ZM154.968 430.363C157.022 425.174 158.833 419.264 160.145 412.567C168.149 371.714 155.083 321.202 121.33 262.38L132.15 236.579C140.714 246.884 150.472 261.469 154.424 270.665C156.051 274.452 159.74 276.72 163.616 276.72C164.933 276.72 166.273 276.457 167.56 275.905C172.634 273.724 174.979 267.844 172.799 262.769C166.935 249.125 152.066 227.895 140.692 216.21L157.225 176.785C160.121 182.095 163.708 187.913 168.01 194.291C170.972 198.683 174.217 203.236 177.707 207.916C211.914 259.822 211.14 312.951 204.453 348.4C197.342 386.104 182.115 413.709 176.522 421.322L154.968 430.363ZM111.46 285.915C142.553 344.866 144.886 383.925 140.851 406.923C136.819 429.907 126.125 440.986 123.084 443.734L96.733 454.784C102.591 433.93 104.131 400.827 81.492 357.375L111.46 285.915ZM300.233 331.382C306.269 335.99 312.122 340.224 317.708 343.991C324.089 348.295 329.906 351.88 335.218 354.776L288.045 374.557C293.398 363.482 298.125 349.209 300.233 331.382ZM214.541 179.385C213.84 180.107 213.148 180.836 212.435 181.549C208.53 185.454 208.53 191.786 212.435 195.692C214.388 197.644 216.947 198.621 219.506 198.621C222.065 198.621 224.625 197.644 226.577 195.692C227.833 194.436 229.07 193.163 230.293 191.878C245.462 204.417 261.501 219.057 277.222 234.778C290.741 248.297 303.452 262.049 314.726 275.282C312.92 276.285 311.115 277.305 309.31 278.347C304.527 281.109 302.888 287.225 305.65 292.007C307.502 295.215 310.863 297.009 314.32 297.009C316.016 297.009 317.736 296.576 319.31 295.667C322.086 294.063 324.864 292.524 327.641 291.021C331.986 296.539 336.018 301.904 339.659 307.044C354.555 328.067 358.568 338.802 359.625 343.452C354.975 342.394 344.24 338.38 323.217 323.486C301.477 308.083 275.812 285.909 250.951 261.049C226.091 236.189 203.916 210.524 188.514 188.784C173.619 167.761 169.605 157.026 168.548 152.376C173.198 153.434 183.933 157.448 204.956 172.342C208.073 174.549 211.277 176.91 214.541 179.385ZM71.005 382.386C79.286 403.148 82.158 423.036 79.316 440.76C77.229 453.773 72.588 462.327 70.355 465.847L28.676 483.325L71.005 382.386Z" fill="black"/>
<path d="M180.884 288.533C178.617 283.496 172.698 281.25 167.661 283.517C162.781 285.713 160.521 291.339 162.447 296.268C163.961 300.231 167.746 302.698 171.787 302.698C172.883 302.698 173.997 302.516 175.091 302.134C180.303 300.31 183.051 294.605 181.226 289.392C181.131 289.121 181.002 288.795 180.884 288.533Z" fill="black"/>
<path d="M373.433 154.691C375.386 156.643 377.945 157.62 380.504 157.62C383.064 157.62 385.622 156.643 387.575 154.691C409.918 132.348 446.118 122.108 472.546 119.975C478.051 119.531 482.153 114.707 481.709 109.203C481.264 103.698 476.451 99.612 470.937 100.04C440.964 102.459 399.611 114.371 373.433 140.549C369.528 144.454 369.528 150.786 373.433 154.691Z" fill="black"/>
<path d="M504.589 101.963C504.306 101.887 504.018 101.812 503.727 101.739C498.368 100.403 492.942 103.668 491.607 109.027C490.273 114.386 493.536 119.813 498.895 121.147L499.406 121.279C500.274 121.512 501.146 121.624 502.004 121.624C506.418 121.624 510.458 118.679 511.656 114.213C513.087 108.879 509.924 103.395 504.589 101.963Z" fill="black"/>
<path d="M73.504 83.621H83.504V93.621C83.504 99.143 87.981 103.621 93.504 103.621C99.027 103.621 103.504 99.143 103.504 93.621V83.621H113.504C119.027 83.621 123.504 79.143 123.504 73.621C123.504 68.099 119.027 63.621 113.504 63.621H103.504V53.621C103.504 48.099 99.027 43.621 93.504 43.621C87.981 43.621 83.504 48.099 83.504 53.621V63.621H73.504C67.981 63.621 63.504 68.099 63.504 73.621C63.504 79.144 67.981 83.621 73.504 83.621Z" fill="black"/>
<path d="M307.502 180.62H317.503V190.619C317.503 196.142 321.981 200.619 327.503 200.619C333.026 200.619 337.503 196.142 337.503 190.619V180.62H347.502C353.024 180.62 357.502 176.142 357.502 170.62C357.502 165.098 353.024 160.62 347.502 160.62H337.503V150.619C337.503 145.097 333.026 140.619 327.503 140.619C321.981 140.619 317.503 145.097 317.503 150.619V160.62H307.502C301.98 160.62 297.502 165.098 297.502 170.62C297.502 176.143 301.98 180.62 307.502 180.62Z" fill="black"/>
<path d="M446.501 417.618H436.501V407.618C436.501 402.096 432.023 397.618 426.501 397.618C420.979 397.618 416.501 402.096 416.501 407.618V417.618H406.501C400.979 417.618 396.501 422.096 396.501 427.618C396.501 433.14 400.979 437.618 406.501 437.618H416.501V447.618C416.501 453.14 420.979 457.618 426.501 457.618C432.023 457.618 436.501 453.14 436.501 447.618V437.618H446.501C452.023 437.618 456.501 433.14 456.501 427.618C456.501 422.096 452.024 417.618 446.501 417.618Z" fill="black"/>
<path d="M389.969 60.001C406.511 60.001 419.969 46.543 419.969 30.001C419.969 13.459 406.511 0.00100708 389.969 0.00100708C373.427 0.00100708 359.969 13.459 359.969 30.001C359.969 46.543 373.427 60.001 389.969 60.001ZM389.969 20.001C395.483 20.001 399.969 24.487 399.969 30.001C399.969 35.515 395.483 40.001 389.969 40.001C384.455 40.001 379.969 35.515 379.969 30.001C379.969 24.487 384.455 20.001 389.969 20.001Z" fill="black"/>
<path d="M452.501 173.619C435.959 173.619 422.501 187.077 422.501 203.619C422.501 220.161 435.959 233.619 452.501 233.619C469.043 233.619 482.501 220.161 482.501 203.619C482.501 187.077 469.042 173.619 452.501 173.619ZM452.501 213.619C446.987 213.619 442.501 209.133 442.501 203.619C442.501 198.105 446.987 193.619 452.501 193.619C458.015 193.619 462.501 198.105 462.501 203.619C462.501 209.133 458.015 213.619 452.501 213.619Z" fill="black"/>
<path d="M198.503 95.62C215.045 95.62 228.503 82.162 228.503 65.62C228.503 49.078 215.045 35.62 198.503 35.62C181.961 35.62 168.503 49.078 168.503 65.62C168.503 82.162 181.961 95.62 198.503 95.62ZM198.503 55.62C204.017 55.62 208.503 60.106 208.503 65.62C208.503 71.134 204.017 75.62 198.503 75.62C192.989 75.62 188.503 71.134 188.503 65.62C188.503 60.107 192.989 55.62 198.503 55.62Z" fill="black"/>
<path d="M449.19 294.058C449.19 288.55 444.698 284.058 439.19 284.058C433.682 284.058 429.19 288.55 429.19 294.058C429.19 299.566 433.682 304.058 439.19 304.058C444.698 304.058 449.19 299.565 449.19 294.058Z" fill="black"/>
<path d="M335.189 95.06C340.697 95.06 345.189 90.568 345.189 85.06C345.189 79.552 340.697 75.06 335.189 75.06C329.681 75.06 325.189 79.552 325.189 85.06C325.19 90.567 329.682 95.06 335.189 95.06Z" fill="black"/>
<path d="M469.189 359.057C463.681 359.057 459.188 363.55 459.188 369.058C459.188 374.566 463.681 379.058 469.189 379.058C474.696 379.058 479.189 374.566 479.189 369.058C479.189 363.55 474.696 359.057 469.189 359.057Z" fill="black"/>
<path d="M139.192 30.001C144.7 30.001 149.192 25.509 149.192 20.001C149.192 14.493 144.7 10.001 139.192 10.001C133.684 10.001 129.192 14.493 129.192 20.001C129.192 25.509 133.684 30.001 139.192 30.001Z" fill="black"/>
</g>
<defs>
<clipPath id="clip0">
<rect width="512" height="512" fill="white"/>
</clipPath>
</defs>
</svg>
