<svg xmlns="http://www.w3.org/2000/svg" viewBox="0 0 806.77 306.13"><defs><style>.cls-1{fill:#fff;}</style></defs><title>logo-white-with-name</title><g id="Camada_5" data-name="Camada 5"><path class="cls-1" d="M315.3,75.23a40.3,40.3,0,0,1,16.58,3.49,45.21,45.21,0,0,1,13.75,9.38,43.84,43.84,0,0,1,9.27,13.64,40.76,40.76,0,0,1,3.38,16.47,42,42,0,0,1-9.38,27.27,42.63,42.63,0,0,1,12.55,16.69,51.54,51.54,0,0,1,4,20A47,47,0,0,1,361.66,201a49.24,49.24,0,0,1-26,26,47,47,0,0,1-18.87,3.82H274.51V75.23Zm-12.87,27.92v31.42c2.33,0,4.4,0,6.22-.11s3.89-.11,6.22-.11a15.42,15.42,0,0,0,10.91-4.58,15.16,15.16,0,0,0,.11-22,15.27,15.27,0,0,0-11-4.59Zm0,57.38v42.11h13.75a20.94,20.94,0,0,0,14.94-5.89,19.83,19.83,0,0,0,6.22-15.06,20.87,20.87,0,0,0-21.16-21.16Z"/><path class="cls-1" d="M406.06,99.45v4.36a12.65,12.65,0,0,1-12.65,12.65h0a12.65,12.65,0,0,1-12.66-12.65V99.45a12.66,12.66,0,0,1,12.66-12.66h0A12.66,12.66,0,0,1,406.06,99.45Zm0,45.81v72a12.66,12.66,0,0,1-12.65,12.65h0a12.66,12.66,0,0,1-12.66-12.65v-72a12.65,12.65,0,0,1,12.66-12.65h0A12.65,12.65,0,0,1,406.06,145.26Z"/><path class="cls-1" d="M435.84,132.61h61.41l-36,72h21.38a12.66,12.66,0,0,1,12.66,12.66h0a12.66,12.66,0,0,1-12.66,12.65H421.11l35.34-72.21H435.84a12.55,12.55,0,0,1-12.55-12.55h0A12.54,12.54,0,0,1,435.84,132.61Z"/><path class="cls-1" d="M526.81,132.61h61.42l-36,72h21.38a12.65,12.65,0,0,1,12.65,12.66h0a12.65,12.65,0,0,1-12.65,12.65H512.09l35.34-72.21H526.81a12.55,12.55,0,0,1-12.54-12.55h0A12.54,12.54,0,0,1,526.81,132.61Z"/><path class="cls-1" d="M618.55,75.23a14,14,0,0,1,14,14v89.67a23.44,23.44,0,0,0,2.07,9.82,25.64,25.64,0,0,0,5.56,8,25.26,25.26,0,0,0,8,5.24,24.13,24.13,0,0,0,9.28,1.85,23.54,23.54,0,0,0,9.49-2,26.64,26.64,0,0,0,7.85-5.24,24,24,0,0,0,5.35-7.85,24.67,24.67,0,0,0,2-9.82V89.19a14,14,0,0,1,14-14h.22a14,14,0,0,1,14,14v89.67A51.25,51.25,0,0,1,706,199.37a53.36,53.36,0,0,1-28.15,28.14,51.2,51.2,0,0,1-20.5,4.14,52.3,52.3,0,0,1-37.31-15.27,53.33,53.33,0,0,1-11.34-16.8,51.54,51.54,0,0,1-4.15-20.72V89.19a14,14,0,0,1,14-14Z"/><path class="cls-1" d="M755.56,89.19V216a14,14,0,0,1-14,14h0a14,14,0,0,1-14-14V89.19a14,14,0,0,1,14-14h0A14,14,0,0,1,755.56,89.19Z"/><rect class="cls-1" x="132.87" y="223.8" width="30.79" height="31.02" rx="15.39" transform="translate(-95.83 99.05) rotate(-28.34)"/><path class="cls-1" d="M174.73,111.57c0,.34,0,.67-.07,1s0,.54-.08.81c-.06.55-.12,1.1-.19,1.64s-.12.9-.19,1.35c0,.22-.07.44-.11.66s-.11.64-.17,1a1.7,1.7,0,0,1,0,.22s0,0,0,.06v0a.29.29,0,0,0,0,.09c-.31,1.59-.68,3.17-1.13,4.72-.3,1-.62,2.08-1,3.1-.19.53-.39,1.06-.59,1.59-.4,1-.82,2-1.28,3s-.92,1.94-1.43,2.9c-.22.42-.45.84-.68,1.25s-.62,1.08-.95,1.62-.58.94-.88,1.4a54.11,54.11,0,0,1-5.06,6.61c-.37.42-.75.83-1.14,1.24s-.77.8-1.18,1.2-.8.79-1.22,1.17-.89.82-1.36,1.22-.86.74-1.31,1.1-.89.72-1.35,1.07c-1.06.81-2.16,1.59-3.3,2.33-.33.22-.65.43-1,.63-1,.62-2,1.22-3.05,1.78l-.26.15-.18.1a19,19,0,0,0-7.24,25.4l8.64,16A18.42,18.42,0,1,1,114.5,215.5L98.11,185.11a36.82,36.82,0,0,1,14.94-49.91c2.69-1.45,5.08-2.8,7.15-4s4.45-2.56,7.15-4a20.31,20.31,0,0,0,9.8-12.15,19.46,19.46,0,0,0-.85-14.83c-.17-.36-.35-.73-.55-1.09a19.41,19.41,0,0,0-12.28-9.73,20.1,20.1,0,0,0-15.65,1.58L93.38,98.73l-16.21,8.74a18.35,18.35,0,0,1-8.73,2.21,18.61,18.61,0,0,1-7.29-1.5A18.42,18.42,0,0,1,59.68,75l31.16-16.8a53.16,53.16,0,0,1,21.44-6.32,59.55,59.55,0,0,1,21.83,2.28,58.26,58.26,0,0,1,19.3,10,51.73,51.73,0,0,1,6.7,6.28c.12.12.24.24.34.36q1.17,1.32,2.25,2.73a58.79,58.79,0,0,1,12,38Z"/><path class="cls-1" d="M145.27,156.74l.7-.38-.26.15-.18.1Z"/><path class="cls-1" d="M171.15,127.8c-.4,1-.82,2-1.28,3C170.33,129.84,170.75,128.82,171.15,127.8Z"/><path class="cls-1" d="M172.72,123.11c-.3,1-.62,2.08-1,3.1C172.09,125.19,172.42,124.15,172.72,123.11Z"/><path class="cls-1" d="M174.2,116.38a2.5,2.5,0,0,1,0,.29c.09-.55.17-1.09.24-1.64s.13-1.09.19-1.64C174.5,114.39,174.36,115.39,174.2,116.38Z"/><path class="cls-1" d="M221,199.78a64.85,64.85,0,0,1-11.43,21.87A62,62,0,0,1,190,237.89l-.75.41a18.14,18.14,0,0,1-24.57-7.36l-.27-.5-.13-.25a18.13,18.13,0,0,1,7.35-24.57,29.1,29.1,0,0,0,8.48-6.77,28.18,28.18,0,0,0,5.18-9.42q3.53-10.74-2.21-21.37a27.05,27.05,0,0,0-13.64-12.63A55.05,55.05,0,0,0,184.23,123c0-.27.06-.55.07-.82a2.56,2.56,0,0,0,0-.39,54.78,54.78,0,0,1,14.51,8.46A67.91,67.91,0,0,1,216,150.94a62,62,0,0,1,7.38,24.3A65,65,0,0,1,221,199.78Z"/></g></svg>