<svg xmlns="http://www.w3.org/2000/svg" xmlns:xlink="http://www.w3.org/1999/xlink" viewBox="0 0 806.77 306.13"><defs><style>.cls-1{fill:url(#Gradiente_sem_nome_34);}.cls-2{fill:url(#Gradiente_sem_nome_34-2);}.cls-3{fill:url(#Gradiente_sem_nome_16);}.cls-4{fill:#7be856;}.cls-5{fill:#ffda3e;}</style><linearGradient id="Gradiente_sem_nome_34" x1="117.3" y1="193.11" x2="202.8" y2="315.89" gradientTransform="translate(130.54 -41.91) rotate(28.34)" gradientUnits="userSpaceOnUse"><stop offset="0" stop-color="#7be856"/><stop offset="0.78" stop-color="#7bb457"/></linearGradient><linearGradient id="Gradiente_sem_nome_34-2" x1="155.2" y1="166.71" x2="240.7" y2="289.5" gradientTransform="matrix(1, 0, 0, 1, 0, 0)" xlink:href="#Gradiente_sem_nome_34"/><linearGradient id="Gradiente_sem_nome_16" x1="210.3" y1="218.09" x2="153.08" y2="134.52" gradientUnits="userSpaceOnUse"><stop offset="0" stop-color="#ffda3e"/><stop offset="0.78" stop-color="#ffb714"/></linearGradient></defs><title>logo-color-with-name</title><g id="Camada_4" data-name="Camada 4"><rect class="cls-1" x="129.85" y="219.02" width="36.84" height="37.12" rx="18.42" transform="translate(-95 98.84) rotate(-28.34)"/><path class="cls-2" d="M160.45,69.14l-.34-.36a51.73,51.73,0,0,0-6.7-6.28,58.21,58.21,0,0,0-19.31-10,59.48,59.48,0,0,0-21.82-2.28,53.16,53.16,0,0,0-21.44,6.32L59.68,73.31a18.43,18.43,0,0,0-7.47,25h0a18.43,18.43,0,0,0,25,7.47L93.38,97l14.43-7.79a20.13,20.13,0,0,1,15.66-1.58,20,20,0,0,1,13.68,25.65,20.35,20.35,0,0,1-9.8,12.15c-2.71,1.46-5.08,2.8-7.15,4s-4.46,2.57-7.15,4h0a36.83,36.83,0,0,0-14.94,49.91l16.39,30.39a18.42,18.42,0,0,0,25,7.47h0a18.43,18.43,0,0,0,7.47-25l-8.64-16a19,19,0,0,1,7.83-25.73,54.92,54.92,0,0,0,28.46-42.89c0-.26.06-.54.07-.81s0-.67.08-1a56.14,56.14,0,0,0-7.08-30.33A55,55,0,0,0,160.45,69.14Z"/><path class="cls-3" d="M216,149.21a62,62,0,0,1,7.38,24.3,65,65,0,0,1-13.89,46.41A62,62,0,0,1,190,236.16l-.75.41a18.14,18.14,0,0,1-24.57-7.36l-.41-.75a18.14,18.14,0,0,1,7.36-24.57h0a27.64,27.64,0,0,0,13.66-16.19q3.53-10.74-2.21-21.37A27.5,27.5,0,0,0,145.26,155l.71-.38a54.89,54.89,0,0,0,28.61-43c-.15,1.79-.47,3.58-.8,5.37a56.39,56.39,0,0,1,25.06,11.53A68,68,0,0,1,216,149.21Z"/><path class="cls-4" d="M315.3,75.23a40.3,40.3,0,0,1,16.58,3.49,45.21,45.21,0,0,1,13.75,9.38,44,44,0,0,1,9.27,13.64,40.76,40.76,0,0,1,3.38,16.47,42,42,0,0,1-9.38,27.27,42.63,42.63,0,0,1,12.55,16.69,51.54,51.54,0,0,1,4,20A47,47,0,0,1,361.66,201a49.24,49.24,0,0,1-26,26,47,47,0,0,1-18.87,3.82H274.51V75.23Zm-12.87,27.92v31.42c2.33,0,4.4,0,6.22-.11s3.89-.11,6.22-.11a15.38,15.38,0,0,0,10.91-4.58,15.16,15.16,0,0,0,.11-22,15.27,15.27,0,0,0-11-4.59Zm0,57.38v42.11h13.75a20.94,20.94,0,0,0,14.94-5.89,19.83,19.83,0,0,0,6.22-15.06,20.87,20.87,0,0,0-21.16-21.16Z"/><path class="cls-4" d="M406.06,99.45v4.36a12.65,12.65,0,0,1-12.65,12.65h0a12.65,12.65,0,0,1-12.66-12.65V99.45a12.66,12.66,0,0,1,12.66-12.66h0A12.66,12.66,0,0,1,406.06,99.45Zm0,45.81v72a12.66,12.66,0,0,1-12.65,12.65h0a12.66,12.66,0,0,1-12.66-12.65v-72a12.65,12.65,0,0,1,12.66-12.65h0A12.65,12.65,0,0,1,406.06,145.26Z"/><path class="cls-4" d="M435.84,132.61h61.41l-36,72h21.39a12.66,12.66,0,0,1,12.65,12.66h0a12.66,12.66,0,0,1-12.65,12.65H421.11l35.34-72.21H435.84a12.55,12.55,0,0,1-12.55-12.55h0A12.54,12.54,0,0,1,435.84,132.61Z"/><path class="cls-4" d="M526.81,132.61h61.42l-36,72h21.38a12.65,12.65,0,0,1,12.65,12.66h0a12.65,12.65,0,0,1-12.65,12.65H512.09l35.34-72.21H526.81a12.55,12.55,0,0,1-12.54-12.55h0A12.54,12.54,0,0,1,526.81,132.61Z"/><path class="cls-5" d="M618.55,75.23a14,14,0,0,1,14,14v89.67a23.44,23.44,0,0,0,2.07,9.82,25.64,25.64,0,0,0,5.56,8,25.26,25.26,0,0,0,8,5.24,24.13,24.13,0,0,0,9.28,1.85,23.37,23.37,0,0,0,9.49-2,26.64,26.64,0,0,0,7.85-5.24,24,24,0,0,0,5.35-7.85,24.67,24.67,0,0,0,2-9.82V89.19a14,14,0,0,1,14-14h.22a14,14,0,0,1,14,14v89.67A51.25,51.25,0,0,1,706,199.37a53.27,53.27,0,0,1-28.15,28.14,51.21,51.21,0,0,1-20.5,4.15,52.37,52.37,0,0,1-37.31-15.28,53.33,53.33,0,0,1-11.34-16.8,51.54,51.54,0,0,1-4.15-20.72V89.19a14,14,0,0,1,14-14Z"/><path class="cls-5" d="M755.56,89.19V216a14,14,0,0,1-14,14h0a14,14,0,0,1-14-14V89.19a14,14,0,0,1,14-14h0A14,14,0,0,1,755.56,89.19Z"/></g></svg>