<svg xmlns="http://www.w3.org/2000/svg" viewBox="0 0 439 439" width="439" height="439">
	<style>
		tspan { white-space:pre }
		.shp0 { fill: #ffffff } 
	</style>
	<g id="Layer">
		<g id="Layer">
			<path id="Layer" class="shp0" d="M158.17 352.6C155.12 353.17 153.79 354.6 154.17 356.88C154.55 359.16 156.27 359.93 159.31 359.16C162.36 358.4 163.69 357.07 163.31 355.17C162.93 353.07 161.22 352.22 158.17 352.6Z" />
			<path id="Layer" class="shp0" d="M141.9 354.88C138.85 354.88 137.33 355.93 137.33 358.02C137.33 360.5 138.95 361.54 142.18 361.16C145.23 361.16 146.75 360.11 146.75 358.02C146.75 355.55 145.13 354.5 141.9 354.88Z" />
			<path id="Layer" class="shp0" d="M119.63 354.02C118.87 356.12 120.11 357.54 123.34 358.31C126.2 359.44 128 358.87 128.76 356.59C129.34 354.5 128.1 352.98 125.05 352.02C122.2 351.26 120.39 351.92 119.63 354.02Z" />
			<path id="Layer" class="shp0" d="M414.41 24.12C398.33 8.04 378.96 0 356.31 0L82.22 0C59.58 0 40.21 8.04 24.12 24.12C8.04 40.21 0 59.58 0 82.22L0 356.31C0 378.96 8.04 398.33 24.12 414.41C40.21 430.5 59.58 438.54 82.22 438.54L146.18 438.54C150.36 438.54 153.5 438.39 155.6 438.11C157.69 437.82 159.78 436.59 161.88 434.4C163.97 432.21 165.02 429.02 165.02 424.83C165.02 424.27 164.97 417.79 164.87 405.42C164.78 393.04 164.73 383.24 164.73 376.01L158.16 377.15C153.97 377.91 148.69 378.25 142.32 378.15C135.94 378.05 129.33 377.39 122.47 376.15C115.62 374.91 109.25 372.06 103.34 367.59C97.45 363.11 93.26 357.26 90.78 350.03L87.93 343.46C86.03 339.09 83.03 334.23 78.94 328.9C74.84 323.57 70.7 319.96 66.52 318.05L64.52 316.63C63.19 315.67 61.95 314.53 60.81 313.2C59.67 311.86 58.81 310.53 58.24 309.2C57.67 307.86 58.14 306.77 59.67 305.91C61.19 305.06 63.95 304.63 67.95 304.63L73.65 305.49C77.46 306.25 82.17 308.53 87.79 312.34C93.4 316.14 98.02 321.09 101.63 327.18C106.01 334.99 111.29 340.93 117.48 345.02C123.66 349.12 129.9 351.17 136.18 351.17C142.46 351.17 147.88 350.69 152.45 349.74C157.02 348.79 161.3 347.36 165.3 345.45C167.01 332.7 171.68 322.9 179.29 316.04C168.44 314.9 158.69 313.19 150.02 310.9C141.37 308.62 132.42 304.91 123.19 299.77C113.95 294.63 106.29 288.26 100.2 280.64C94.11 273.02 89.12 263.03 85.22 250.66C81.32 238.29 79.36 224.01 79.36 207.83C79.36 184.8 86.89 165.19 101.92 149.02C94.88 131.7 95.54 112.29 103.92 90.78C109.44 89.06 117.62 90.35 128.47 94.63C139.32 98.92 147.27 102.58 152.31 105.62C157.36 108.66 161.4 111.24 164.45 113.33C182.15 108.38 200.42 105.91 219.27 105.91C238.11 105.91 256.38 108.38 274.09 113.33L284.94 106.48C292.36 101.91 301.12 97.72 311.2 93.92C321.29 90.11 329 89.06 334.33 90.78C342.89 112.29 343.66 131.7 336.61 149.02C351.65 165.2 359.17 184.81 359.17 207.83C359.17 224.01 357.22 238.34 353.32 250.8C349.42 263.27 344.38 273.27 338.19 280.78C332 288.3 324.29 294.63 315.06 299.77C305.83 304.91 296.89 308.62 288.22 310.9C279.56 313.19 269.81 314.91 258.96 316.05C268.85 324.61 273.8 338.12 273.8 356.59L273.8 424.83C273.8 428.06 274.27 430.68 275.22 432.68C276.18 434.67 277.7 436.05 279.79 436.82C281.9 437.58 283.74 438.05 285.37 438.24C286.99 438.43 289.31 438.53 292.36 438.53L356.31 438.53C378.96 438.53 398.33 430.49 414.41 414.4C430.49 398.32 438.53 378.95 438.53 356.3L438.53 82.22C438.53 59.58 430.49 40.2 414.41 24.12Z" />
			<path id="Layer" class="shp0" d="M86.79 319.19C85.46 320.14 85.65 321.67 87.37 323.76C89.27 325.66 90.79 325.95 91.94 324.62C93.27 323.67 93.08 322.14 91.36 320.05C89.46 318.34 87.94 318.05 86.79 319.19Z" />
			<path id="Layer" class="shp0" d="M77.37 312.06C76.8 313.39 77.47 314.54 79.37 315.48C80.89 316.44 82.13 316.25 83.08 314.92C83.65 313.58 82.99 312.44 81.08 311.48C79.18 310.91 77.94 311.1 77.37 312.06Z" />
			<path id="Layer" class="shp0" d="M95.65 330.33C93.93 331.28 93.93 333 95.65 335.47C97.36 337.95 98.97 338.61 100.5 337.47C102.21 336.13 102.21 334.32 100.5 332.04C98.98 329.57 97.36 328.99 95.65 330.33Z" />
			<path id="Layer" class="shp0" d="M105.64 343.17C103.93 344.7 104.31 346.5 106.78 348.6C109.06 350.88 110.97 351.17 112.49 349.45C114.02 347.93 113.63 346.12 111.35 344.03C109.07 341.75 107.16 341.46 105.64 343.17Z" />
		</g>
	</g>
	<g id="Layer">
	</g>
	<g id="Layer">
	</g>
	<g id="Layer">
	</g>
	<g id="Layer">
	</g>
	<g id="Layer">
	</g>
	<g id="Layer">
	</g>
	<g id="Layer">
	</g>
	<g id="Layer">
	</g>
	<g id="Layer">
	</g>
	<g id="Layer">
	</g>
	<g id="Layer">
	</g>
	<g id="Layer">
	</g>
	<g id="Layer">
	</g>
	<g id="Layer">
	</g>
	<g id="Layer">
	</g>
</svg>