<svg xmlns="http://www.w3.org/2000/svg" viewBox="0 0 512 512" width="512" height="512">
	<style>
		tspan { white-space:pre }
		.shp0 { fill: #ffffff } 
	</style>
	<path id="Layer" fill-rule="evenodd" class="shp0" d="M512 452C512 485.09 485.09 512 452 512L60 512C26.91 512 0 485.09 0 452L0 60C0 26.91 26.91 0 60 0L452 0C485.09 0 512 26.91 512 60L512 452ZM60 40C48.97 40 40 48.97 40 60L40 452C40 463.03 48.97 472 60 472L452 472C463.03 472 472 463.03 472 452L472 60C472 48.97 463.03 40 452 40L60 40ZM422 423L353 423L353 312.66C353 286.54 351.84 252.93 315.91 252.93C279.48 252.93 272 281.4 272 310.79L272 423L204 423L204 197L272 197L272 227.74L272.07 227.74C281.4 210.03 304.26 193 338.31 193C409.18 193 422 238 422 298.66L422 423ZM160.01 423L90.01 423L90.01 197L160.01 197L160.01 423ZM126.02 166C103.31 166 85 147.63 85 125C85 102.37 103.31 84 126.02 84C148.63 84 166.99 102.37 166.99 125C166.99 147.63 148.63 166 126.02 166Z" />
</svg>