<svg xmlns="http://www.w3.org/2000/svg" viewBox="0 0 795.58 895.35"><defs><style>.cls-1{fill:none;stroke:#000;stroke-miterlimit:10;stroke-width:33px;}</style></defs><title>logo-portifolio-new</title><g id="Camada_25" data-name="Camada 25"><path d="M377.44,508.63V895.35h40.71V508.63Z"/><path d="M644.05,427.21,553.46,270.3h0L420.9,40.71,418.15,36,400.63,5.6h0L397.39,0l-3.76,6.52-16.19,28-3.55,6.14L150.74,427.21H0v40.71l40.71,40.71V467.92H754.87v40.71l40.71-40.71V427.21ZM578.7,412.27h0a22.93,22.93,0,0,1-21.57,14.93H237.68a23,23,0,0,1-20-34.57L377.44,116a23,23,0,0,1,39.92,0l.79,1.36,82.69,143.23,76.25,132.06A22.72,22.72,0,0,1,578.7,412.27Z"/><path d="M437.49,294.73a40.2,40.2,0,1,1-6.82-22.43A40.23,40.23,0,0,1,437.49,294.73Z"/><line class="cls-1" x1="553.46" y1="270.3" x2="553.45" y2="270.3"/><line class="cls-1" x1="578.7" y1="412.28" x2="578.7" y2="412.27"/></g></svg>