<svg xmlns="http://www.w3.org/2000/svg" viewBox="0 0 741.59 784.51"><defs><style>.cls-1{fill:none;stroke:#000;stroke-miterlimit:10;stroke-width:5px;}</style></defs><title>logo-portifolio</title><g id="Camada_15" data-name="Camada 15"><g id="Camada_18_c贸pia" data-name="Camada 18 c贸pia"><path d="M548.22,692.85H172.69V91.66H548.22Zm-364.53-11H537.22V102.66H183.69Z"/><g id="Camada_23" data-name="Camada 23"><path class="cls-1" d="M397.35,522.71s-.14,138.75-20.78,165.64h69.85S464,571.05,463.21,548.12c-4.42-9.42-8-6.5-8-6.5l-.4-6.39,0-12.24-20.29-15.43-17.13-6.67L400.27,509l-5,5.84Z"/><path d="M418.85,538.8a11.42,11.42,0,0,1,6.83-3.53,12.75,12.75,0,0,1,8,1.4l.86.51c.17.11.35.21.52.33.34.25.7.47,1.06.72.72.5,1.49,1,2.28,1.57a57.19,57.19,0,0,1,5.35,4.21v.5a22.45,22.45,0,0,1-6.47-.88,23.28,23.28,0,0,1-3.1-1.09c-.5-.21-1-.45-1.48-.71s-1-.54-1.42-.77a15.66,15.66,0,0,0-6-1.8,23.72,23.72,0,0,0-3.16-.14,22.44,22.44,0,0,0-3.18.17Z"/><path d="M451.42,554a145.42,145.42,0,0,1,.16,17c-.22,5.65-.77,11.28-1.5,16.9a127.35,127.35,0,0,1-3.33,16.69c-1.51,5.45-3.4,11-6.72,15.62A81,81,0,0,0,444.47,604c.29-1.36.51-2.74.75-4.12s.51-2.74.68-4.13l.65-4.14.56-4.17c.42-2.76.75-5.55,1.1-8.33l1-8.35C449.93,565.18,450.61,559.59,451.42,554Z"/><path d="M404.44,564.55a210.92,210.92,0,0,1,2.72,29.8,249.66,249.66,0,0,1-1.09,29.95c-.28,2.48-.5,5-.83,7.45l-1.12,7.42-.28,1.85-.37,1.84-.75,3.68c-.5,2.45-.94,4.91-1.63,7.32l-1.91,7.25c-.72,2.39-1.55,4.75-2.32,7.13l-1.2,3.54c-.44,1.17-.94,2.32-1.41,3.48q-1.41,3.47-2.88,6.9c.78-2.37,1.57-4.74,2.38-7.09.4-1.17.82-2.34,1.19-3.53l1-3.6c.65-2.39,1.38-4.77,2-7.17l1.65-7.27a251.46,251.46,0,0,0,4.52-29.4c1-9.87,1.46-19.8,1.53-29.73l-.05-7.46c-.07-2.48-.09-5-.2-7.45C405.22,574.48,404.87,569.52,404.44,564.55Z"/></g><path d="M729.17,167.53s23.91-13.62-4.45-28.91c-58.94-25.86-141.23,27.81-185.44,54.21s-72.28,35-108,119c-3.2,6.81-28.2,24.21-39.21,29.26a0,0,0,0,1,0,0,12.39,12.39,0,0,1-6.37,1.75l-.66,0-.54,0-.46-.06a5.25,5.25,0,0,1-.55-.09l-.53-.11a3,3,0,0,1-.52-.13,9.06,9.06,0,0,1-1.39-.46,2.39,2.39,0,0,1-.37-.15,4.84,4.84,0,0,1-.47-.21c-.23-.11-.45-.22-.65-.34a5.73,5.73,0,0,1-.64-.39,11.41,11.41,0,0,1-3.22-3l0-.06h0L296.23,249c-46.54-46.53-54.16-62.27-184.69-62.27,0,14.46,6.81,15.15,6.81,15.15H96.11c-.7,15,19.18,12.09,19.18,12.09s-14.45,11.34-.62,23.15c0,0-12.09,18.56,8.55,21.89-2.79,5.56-1,16.13,6.46,20.23-.83,4.38,4,12.93,10.42,14.18,0,0-1.24,9.59,5.84,11.26,2.92-2.92,4.17-2.71,4.17-2.71s-3.75,4.17-1.66,4.17,13.13,6.67,13.13,6.67,5.43,5.43,15.23,2.71c0,0,.41,4,5.21,4.38,0,0-2.08,7.09,5.63,10.22,0,0-3.34,7.09,7.92,10.22,0,0-4,7.71,9.39,9.17,0,0-3.55,15.85,12.09,15.85,4.17,4.79,9.17,6.46,19.18,4.38-.62,10.63,4.8,18.34,16.27,19.8,5.21,13.56,17.93,8.76,17.93,8.76s-1.66,1,7.72,4.17,53.32-13.82,64-11.15c8.76,2.19,25.12,12.57,23.4,23.45-.87,5.53-1.8,9.71-2,10.41h0c0,.08,0,.16,0,.24a85.54,85.54,0,0,0,2.09,12.83h0c6.1,24.91,21.94,34.7,32.51,42.61a46.27,46.27,0,0,1,5.25,4.61,57.79,57.79,0,0,1,8.06,10.46s-4-.88-5.95,3.56-1.67,6.12-1.67,6.12-7.78-1.11-10,4.17a10.34,10.34,0,0,0,3.48,12.93c-2.51-5.42.81-11.4,4.85-11.12a3,3,0,0,0,2.58-1,6,6,0,0,1,5.45-2.21,6,6,0,0,0,5.33-1.91,5.43,5.43,0,0,0,1-1.38,16.55,16.55,0,0,0,3.55,2.91c1.45.62,4.37,10.22,5.94,15a16.43,16.43,0,0,1,0,9.38,49.27,49.27,0,0,0,4.06-6.88c1.65-3.5-3.91-16.93-4.06-17.3.39.22,14.34,8.18,18.45,12.3s1.36,8.23,1.36,8.23a4.67,4.67,0,0,0,2.61.11c1-.42.52-7.72.52-7.72l1.25,4.49a5.56,5.56,0,0,1,3.54,3.95c.63,3-1.14,4.7-2.19,8.87,3.75-1.67,4.18-6.67,4.18-6.67s9.22,5.73,8.65,10.37a6.49,6.49,0,0,0,3.28,6.57s1.67,4.27-3.25,11.69c6.4-3.61,8.9-9.17,4.62-20.57s-9.62-11.4-9.62-11.4.83-4.17-1.67-6.95-2.78-.56-2.78-.56-.42-.13-1.74-1.95c-10.92-13.63-13.18-23.82-10.29-38,.29-1.43.64-2.9,1-4.41,4.28-16.42,5.7-14.1,34.09-41.17l.5-.47a60.24,60.24,0,0,0,11.74-15.83l.42-.85c10.72-22.6,2.86-46.06,1.76-49.13a.58.58,0,0,1-.06-.15l-.06-.15s0,0,0,0l0-.07c-.12-.24-.54-1.06-1.15-2.33,0,0,0,0,0,0-11.86-15.14-6.76-11.47-19-24,.3.13,8.72,4,16.07,17.84-3.77-8.29-9.06-20.89-10.79-29.92-2.78-14.58,6.11-31.3,9.45-32.41s8.62-9.73,11.4-12,11.12.84,11.12.84,2.23,6.67,17.8.83c0,0,8.89,6.4,25.3-5.56,0,0,1.39,6.68,18.34-3.89,0,0,9.73,3.33,27-6.67,0,0,7.51,3.33,26.7-8.34,0,0,22,7.22,43.36-18.36,0,0,20.3-.83,31.14-25.58,0,0,14.74-10.28,14.74-23.07C713.88,196.17,752.25,184.77,729.17,167.53ZM230.49,231.45c-5.56-4.48-34.2-25.53-94.34-36.67C190.63,200,224.35,226.3,230.49,231.45Zm-107.27,3.36c49.93-4,78.91,6.8,90.62,12.71C203.71,242.92,178.74,235.39,123.22,234.81Zm44.32,56.93c22.06-6.44,36.74-7.33,56.18-7.51C223.72,284.23,193.25,285.11,167.54,291.74ZM203.71,332c34-15.44,53.54-13.59,55.44-13.36C257.28,318.47,238.13,317.34,203.71,332Zm20,30.72c9.57-4.78,39.42-8.8,42.07-9.14C264.85,353.78,259.07,355,223.72,362.71Zm100.87-44.09c-1.14-.49-19.67-8.33-38.69-8.74C300.84,307.25,323.29,318,324.59,318.62ZM284,367.91c2.32-1.74,11.26-9.13-2.46-10.76C297.92,357.27,286.64,366,284,367.91Zm47.31-41.35h-30C313.18,324.48,331.32,326.56,331.32,326.56Zm-22.94,11.65c3.74-2.59,28.4-5.83,31.22-6.18C338.55,332.25,333.43,333.26,308.38,338.21Zm31.49,42.15c25.77-6.15,30.08,9.87,30.58,12.39C369.94,390.44,365.78,376.84,339.87,380.36ZM455.91,523c2.28,3.6,0,7.92,0,7.92C457,527.89,455.91,523,455.91,523Zm-12-188.92a52,52,0,0,0-28.77,8.33C415.36,342.14,422.56,333.25,443.92,334.07Zm-54.77,83.72s-1.32,10.06,18.9,31C385.32,426.24,389.15,417.79,389.15,417.79ZM411,488c2.71-2,3.56-2,6.33-2.17A15.26,15.26,0,0,0,411,488Zm-7.69-8s4.32-7.78,15-5.69C410,476.21,413.2,474.26,403.32,480Zm19.12,7c-.34,4.25,0,3.12.57,7.19A11.94,11.94,0,0,1,422.44,487ZM447,515.9c-10.5-12.72-22.24-16.68-22.24-16.68S436,501.1,447,515.9Zm-47.81-90.63c24.25,31.79,43.54,28.85,44.71,28.64C442.66,454.2,419.81,459.08,399.16,425.27Zm58.38,24.26a19.25,19.25,0,0,1-13.23,2.17c-35.26-6.9-43.86-42.17-42-60.93A20.4,20.4,0,0,1,420,372.47c19.31-2.42,33.7,17.76,33.7,17.76C520,349.55,488.22,431.91,457.54,449.53Zm22.52-152.44s-3.05-46.15,48.38-55.6C480,253.17,480.06,297.09,480.06,297.09Zm60.07-35.37,30.29,14C560.65,272.52,542,262.7,540.13,261.72Zm11.08-10.27,45.34,17.21C577.69,263.1,553.88,252.65,551.21,251.45Zm38.12-15,72.83,6.25C634.65,242.74,589.34,236.49,589.33,236.49Zm23.91-50.05s45.59-10.56,86.18,3.06C657.72,178.93,622.69,185.61,613.24,186.44Zm-20.55-17.26c1.84-1,74.13-39.5,133.43-21.66C684.7,137.79,624.12,153.06,592.69,169.18Z"/><g id="Camada_19_c贸pia" data-name="Camada 19 c贸pia"><path d="M461,406.84s0-7.71,11.26-8.34C472.28,412.27,461,406.84,461,406.84Z"/><path d="M421,395c12.72-1.25,11.68,9.17,11.68,9.17C416.39,408.93,421,395,421,395Z"/><path d="M452.78,427.9s-1.35,12.57-8.44,18.82c2.85-16.26.72-18.87.72-18.87Z"/><path d="M472.28,396.73s11.52-1.3,15.69-6.36C482.29,394.17,477.54,396.11,472.28,396.73Z"/><path d="M458.24,417.79s.59-5.94,3.4-5.63c-1.32-.35-2.92,1-3.23,3.37S458.24,417.79,458.24,417.79Z"/></g><g id="Camada_22" data-name="Camada 22"><path d="M491.23,366.39c-.48-1-1.09-2.27-1.78-3.75-.34-.73-.7-1.5-1.07-2.32C489.36,362.16,490.32,364.18,491.23,366.39Z"/><path d="M433.7,394.85s-5.84-6.25-6.25-11.88C431,391.46,433.7,394.85,433.7,394.85Z"/><path d="M436,400s1.53,4.06,0,6.15C437.38,403.65,437.45,402.25,436,400Z"/><path d="M424.84,407.9s-6.78.2-9.38,3.11A28.23,28.23,0,0,1,424.84,407.9Z"/><path d="M427.45,391.31s-5.74-2.19-7.3-6.05A56.6,56.6,0,0,0,427.45,391.31Z"/><path d="M440.79,417.79s3.55,4.8,4.27,7.93C443.92,421.93,442.49,419,440.79,417.79Z"/></g></g></g></svg>